<?xml version="1.0" standalone="no"?>
<!DOCTYPE svg PUBLIC "-//W3C//DTD SVG 20010904//EN"
 "http://www.w3.org/TR/2001/REC-SVG-20010904/DTD/svg10.dtd">
<svg version="1.0" xmlns="http://www.w3.org/2000/svg"
 width="300.000000pt" height="202.000000pt" viewBox="0 0 300.000000 202.000000"
 preserveAspectRatio="xMidYMid meet">

<g transform="translate(0.000000,202.000000) scale(0.100000,-0.100000)"
fill="#1282c6" stroke="none">
<path d="M1170 1934 c-58 -42 -135 -96 -172 -121 l-68 -45 0 -227 0 -227 78
-56 77 -56 5 224 5 224 95 66 c52 36 132 91 177 122 45 31 79 60 77 64 -8 12
-152 108 -161 107 -4 0 -55 -34 -113 -75z"/>
<path d="M1660 1986 c-258 -180 -359 -249 -432 -300 l-88 -60 0 -341 0 -342
78 -56 77 -56 3 336 c2 333 2 336 24 352 35 25 152 106 270 188 l110 75 46
-33 c26 -18 61 -42 77 -53 80 -55 75 -35 75 -273 0 -117 3 -213 6 -213 3 0 39
24 79 53 l74 52 0 226 1 226 -47 31 c-27 16 -106 71 -177 121 -72 50 -132 91
-135 91 -4 0 -22 -11 -41 -24z"/>
<path d="M1615 1670 c-38 -27 -71 -53 -72 -57 -2 -5 14 -19 35 -33 20 -13 54
-37 74 -53 l38 -28 2 -334 3 -333 78 56 77 56 0 340 0 341 -71 48 c-39 26 -76
47 -83 47 -6 -1 -42 -23 -81 -50z"/>
</g>
</svg>
